<?xml version="1.0" standalone="no"?>
<!DOCTYPE svg PUBLIC "-//W3C//DTD SVG 20010904//EN"
 "http://www.w3.org/TR/2001/REC-SVG-20010904/DTD/svg10.dtd">
<svg version="1.0" xmlns="http://www.w3.org/2000/svg"
 width="225.000000pt" height="225.000000pt" viewBox="0 0 225.000000 225.000000"
 preserveAspectRatio="xMidYMid meet">

<g transform="translate(0.000000,225.000000) scale(0.100000,-0.100000)"
fill="#000000" stroke="none">
<path d="M1180 2204 c-341 -49 -575 -184 -731 -422 -31 -48 -68 -88 -106 -116
-336 -248 -434 -701 -228 -1058 51 -87 53 -104 30 -229 -22 -118 -59 -226 -99
-286 l-33 -50 91 19 c117 25 306 88 387 129 35 17 108 61 162 96 54 36 104 62
112 59 7 -2 18 -14 24 -24 14 -26 -12 -59 -74 -99 -25 -15 -45 -31 -45 -34 0
-9 89 -27 192 -40 69 -8 120 -8 207 1 256 26 468 126 632 296 l66 69 94 -37
c98 -39 355 -106 365 -95 4 3 -3 18 -14 32 -51 64 -105 244 -119 390 -5 57 -3
63 31 115 42 63 88 178 107 265 18 84 15 256 -5 334 -40 154 -98 258 -210 378
-160 170 -365 272 -610 303 -77 10 -173 11 -226 4z m-187 -331 c-13 -2 -33 -2
-45 0 -13 2 -3 4 22 4 25 0 35 -2 23 -4z m134 -9 c-3 -3 -12 -4 -19 -1 -8 3
-5 6 6 6 11 1 17 -2 13 -5z m171 -572 c8 -51 2 -52 -315 -52 l-294 0 -8 23
c-5 12 -5 30 1 40 8 16 31 17 311 15 l302 -3 3 -23z m212 -262 c8 -14 8 -26 0
-40 -10 -20 -21 -20 -518 -20 -525 0 -532 1 -532 40 0 39 7 40 532 40 497 0
508 0 518 -20z m427 -47 c-2 -16 -4 -5 -4 22 0 28 2 40 4 28 2 -13 2 -35 0
-50z m-433 -219 c21 -20 20 -30 -4 -54 -19 -19 -33 -20 -509 -20 -464 0 -490
1 -512 19 -21 16 -22 22 -11 45 l12 26 504 0 c445 0 506 -2 520 -16z"/>
</g>
</svg>
